<?xml version="1.0" encoding="UTF-8" standalone="no"?>
<!-- Created with Inkscape (http://www.inkscape.org/) -->

<svg
   xmlns:dc="http://purl.org/dc/elements/1.1/"
   xmlns:cc="http://creativecommons.org/ns#"
   xmlns:rdf="http://www.w3.org/1999/02/22-rdf-syntax-ns#"
   xmlns:svg="http://www.w3.org/2000/svg"
   xmlns="http://www.w3.org/2000/svg"
   xmlns:sodipodi="http://sodipodi.sourceforge.net/DTD/sodipodi-0.dtd"
   xmlns:inkscape="http://www.inkscape.org/namespaces/inkscape"
   width="500.71429"
   height="361.42856"
   id="svg2"
   version="1.1"
   inkscape:version="0.48.4 r9939"
   sodipodi:docname="awareness.svg"
   inkscape:export-filename="/home/alf/Downloads/icons_landing/awareness.png"
   inkscape:export-xdpi="300.04001"
   inkscape:export-ydpi="300.04001">
  <defs
     id="defs4">
    <inkscape:path-effect
       effect="bend_path"
       id="path-effect4401"
       is_visible="true"
       bendpath="m 104.9752,565.93 c 0,0 46.86364,7.87067 106.03572,-9.46957 37.25707,-10.9181 101.17301,-50.12622 112.91554,-50.12943 11.74253,-0.003 63.55441,31.82218 104.44506,43.31891 C 489.35113,566.79481 543.3517,565.93 543.3517,565.93"
       prop_scale="1"
       scale_y_rel="false"
       vertical="false"
       bendpath-nodetypes="cszsc" />
    <inkscape:path-effect
       effect="vonkoch"
       id="path-effect4387"
       is_visible="true"
       ref_path="m 104.9752,565.93 438.3765,0"
       generator="m 104.9752,586.53653 146.1255,0 m 146.1255,0 146.1255,0"
       similar_only="true"
       nbgenerations="1"
       drawall="false"
       maxComplexity="998" />
    <inkscape:path-effect
       effect="skeletal"
       id="path-effect4385"
       is_visible="true"
       pattern="M 0,0 1,0"
       copytype="single_stretched"
       prop_scale="1"
       scale_y_rel="false"
       spacing="0"
       normal_offset="0"
       tang_offset="0"
       prop_units="false"
       vertical_pattern="false"
       fuse_tolerance="0" />
    <marker
       inkscape:stockid="DotL"
       orient="auto"
       refY="0"
       refX="0"
       id="DotL"
       style="overflow:visible">
      <path
         id="path3826"
         d="m -2.5,-1 c 0,2.76 -2.24,5 -5,5 -2.76,0 -5,-2.24 -5,-5 0,-2.76 2.24,-5 5,-5 2.76,0 5,2.24 5,5 z"
         style="fill-rule:evenodd;stroke:#000000;stroke-width:1pt"
         transform="matrix(0.8,0,0,0.8,5.92,0.8)"
         inkscape:connector-curvature="0" />
    </marker>
    <marker
       inkscape:stockid="SemiCircleOut"
       orient="auto"
       refY="0"
       refX="0"
       id="SemiCircleOut"
       style="overflow:visible">
      <path
         id="path3946"
         d="m -2.5,-0.80913858 c 0,2.75999998 -2.24,4.99999998 -5,4.99999998 l 0,-10 c 2.76,0 5,2.24 5,5.00000002 z"
         style="fill-rule:evenodd;stroke:#000000;stroke-width:1pt"
         transform="matrix(0.6,0,0,0.6,4.2752958,0.4580676)"
         inkscape:connector-curvature="0" />
    </marker>
  </defs>
  <sodipodi:namedview
     id="base"
     pagecolor="#ffffff"
     bordercolor="#666666"
     borderopacity="1.0"
     inkscape:pageopacity="0"
     inkscape:pageshadow="2"
     inkscape:zoom="0.49497475"
     inkscape:cx="404.27341"
     inkscape:cy="-80.861166"
     inkscape:document-units="px"
     inkscape:current-layer="layer1"
     showgrid="false"
     fit-margin-top="0"
     fit-margin-left="0"
     fit-margin-right="0"
     fit-margin-bottom="-0.3"
     inkscape:window-width="1920"
     inkscape:window-height="1060"
     inkscape:window-x="1364"
     inkscape:window-y="-3"
     inkscape:window-maximized="1" />
  <metadata
     id="metadata7">
    <rdf:RDF>
      <cc:Work
         rdf:about="">
        <dc:format>image/svg+xml</dc:format>
        <dc:type
           rdf:resource="http://purl.org/dc/dcmitype/StillImage" />
        <dc:title></dc:title>
      </cc:Work>
    </rdf:RDF>
  </metadata>
  <g
     inkscape:label="Layer 1"
     inkscape:groupmode="layer"
     id="layer1"
     transform="translate(-82.5,-268.43361)">
    <path
       style="fill:#75fe75;stroke-width:35;stroke-miterlimit:4;stroke-dasharray:none"
       d="m 488.65625,404.875 c -39.03591,1.6233 -80.53918,-2.80318 -116.6875,14.5625 -11.38905,5.31958 -19.07404,15.4307 -28.28125,23.5625 -11.56579,13.12351 -18.5112,29.63553 -27.06006,44.72163 -11.6211,22.58668 -21.34798,47.39877 -40.90869,63.99712 -7.27324,4.67898 -139.36376,18.1576 -141.64565,27.96558 -0.6678,8.97353 130.72961,1.81326 138.14565,-1.71558 24.87656,-7.06856 40.31034,-30.35504 51.53039,-52.16504 13.80457,-26.07665 25.70532,-53.56152 44.18836,-76.52246 7.43318,-5.18805 15.00251,-10.6744 23.9151,-13.10439 24.64185,-7.64681 50.97297,-5.43332 76.491,-6.79545 23.39326,-0.4515 47.1869,0.72115 70.25015,-3.25641 9.39234,-4.9213 4.01634,-21.76116 -6.5,-20.25 -14.44866,-1.12246 -28.95551,-1.05906 -43.4375,-1 z"
       inkscape:connector-curvature="0"
       sodipodi:nodetypes="cccccccccccccc" />
    <path
       style="fill:#7474fd;stroke-width:0.1;stroke-miterlimit:4;stroke-dasharray:none"
       d="m 144.4375,292.78125 c -11.04115,1.13615 -23.5635,-2.66911 -33.46875,3.59375 -7.42103,4.75832 -3.78965,16.58227 4.28125,18.28125 9.94135,2.27002 20.403,0.81394 30.56226,1.71827 37.47111,0.87477 75.45406,-1.47408 112.43774,5.31298 21.66128,8.18109 31.42031,31.02796 41.08735,50.30855 14.82995,30.20045 27.79997,64.58326 57.0689,83.69145 30.37899,19.04738 67.92134,17.01816 102.43733,17.69734 25.50856,0.082 51.14539,0.52532 76.56267,-1.25984 7.71247,-1.83376 11.71561,-13.35342 4.40625,-18.21875 -8.72963,-6.50955 -20.30689,-2.26712 -30.28125,-4.1875 -42.53991,-1.55805 -85.8477,2.16166 -127.6875,-6.84375 -21.82326,-7.09032 -34.86369,-27.51295 -44.67387,-47.02383 -15.60072,-29.75425 -26.52721,-63.97041 -52.88863,-86.19492 -23.60863,-17.43501 -54.66356,-16.70567 -82.74976,-16.67873 -19.03066,-0.19705 -38.06239,-0.28216 -57.09399,-0.19627 z"
       id="path4050"
       inkscape:connector-curvature="0" />
    <path
       style="fill:#cc3a39;stroke-width:35;stroke-miterlimit:4;stroke-dasharray:none"
       d="m 312.70396,487.84186 c -0.94536,0.39277 -1.78932,0.78806 -2.53769,1.17738 -4.37239,2.23597 -8.03714,4.75084 -11.23611,7.27692 -9.35145,7.30723 -17.31951,15.70962 -25.87284,23.12993 -7.45137,6.44927 -15.37704,12.25211 -24.6679,16.04228 -2.54735,1.40715 -5.11508,2.77355 -7.70317,4.09775 -10.05721,5.13265 -20.27743,9.74188 -30.85444,12.87066 -1e-5,0 -1e-5,10e-6 -1e-5,10e-6 -11.98867,3.56628 -24.26266,6.16303 -36.62059,8.05396 -12.35793,1.89093 -24.79878,3.07972 -37.30918,3.84845 -8.10688,-0.0553 -16.21492,0.0763 -24.33982,0.47494 -4.94524,1.46432 -7.31818,6.31681 -7.07866,10.97907 0.23952,4.66227 3.13155,9.13581 8.65173,9.83981 7.29711,1.62518 14.74521,2.20175 22.21064,2.53312 9.02792,-0.19818 18.02854,-1.12365 26.99521,-1.57426 18.38127,-1.95646 36.65489,-5.34913 54.39328,-10.60055 12.48151,-3.78143 23.78953,-8.80675 34.16088,-14.06269 11.82878,-5.93604 23.07494,-12.46385 33.83216,-19.40311 0.88704,-0.57061 1.76925,-1.14397 2.6469,-1.71983 7.40829,-7.02631 14.24593,-15.22021 22.11137,-21.93879 3.0027,-2.55355 6.03885,-4.87073 9.31143,-6.61374 0,0 0,0 0,0 1.15136,-0.6102 2.26438,-1.13754 3.36269,-1.50336 0,0 0,0 0,0 0.81408,-0.23941 1.40552,-0.43805 1.76768,-0.41357 0,0 0,0 0,0 1.22837,-0.10244 2.82108,0.63876 4.77901,1.50064 2.55075,1.24963 4.94873,2.98001 7.23448,5.10881 0.26758,0.21427 0.53565,0.42998 0.80447,0.64693 7.44199,6.03431 14.4593,12.81308 22.17524,19.18113 4.49912,3.7299 9.16691,7.30885 14.13359,10.52811 4.96669,3.21925 10.23432,6.07985 15.8876,8.34681 10e-6,0 10e-6,0 10e-6,0 1.69312,0.68199 3.42612,1.31153 5.20009,1.88002 9.18993,3.96775 18.78042,7.78382 28.93705,10.94501 13.65245,4.23267 27.51387,7.80417 41.51797,10.4994 14.0041,2.69522 28.14934,4.51255 42.28727,5.24175 0,0 0,0 1e-5,0 8.78119,0.45861 17.63276,0.50066 26.48761,-0.007 1.25819,-0.0722 2.5253,-0.15555 3.80048,-0.25226 1.48251,-0.53022 2.6918,-1.31508 3.63158,-2.26859 0.88026,-0.89329 1.54817,-1.93546 1.98646,-3.05766 0,0 0,0 0,0 0.22683,-0.58081 0.403,-1.18326 0.51754,-1.79779 0.0647,-0.31296 0.11593,-0.62909 0.14856,-0.94708 0,-1e-5 0,-2e-5 0,-3e-5 -0.0725,-6.7951 -0.10313,-9.7875 -0.10476,-9.94747 0,0 0,0 0,0 0,0 0,0 0,-10e-6 0,0 0,0 0,0 0,0 0,0 0,0 0,0 0,0 0,0 0,0 0,0 0,0 0,0 0,0 0,0 0,0 0,0 0,0 0,0 0,0 0,0 0,0 0,-10e-6 0,-10e-6 0,0 0,0 0,0 -9e-5,-0.009 -9e-5,-0.009 0,-2e-5 0,0 0,0 0,0 0,0 0,0 0,0 0.002,0.15972 0.0318,3.1396 0.0756,7.95981 -0.0402,-0.32817 -0.0956,-0.65586 -0.16115,-0.98197 -0.12358,-0.65533 -0.29849,-1.30414 -0.5155,-1.93708 -0.43862,-1.27925 -1.06625,-2.49341 -1.85807,-3.5642 -1.62358,-2.19555 -3.94496,-3.78838 -6.87092,-4.09853 -0.63319,-0.0671 -1.29481,-0.074 -1.98439,-0.0139 -7.67304,-0.82906 -15.33595,-1.70302 -23.00389,-2.63455 -13.41302,-1.63107 -26.82165,-3.43447 -40.12455,-5.82906 -13.30291,-2.39458 -26.50178,-5.38294 -39.36745,-9.34871 -10.59504,-3.26235 -20.81052,-7.8011 -30.69735,-13.06802 -10.05682,-5.36652 -19.68802,-11.54015 -28.97849,-18.40611 -0.25695,-0.19046 -0.51374,-0.38158 -0.77036,-0.57336 -7.18926,-6.00626 -14.09761,-12.82697 -22.24036,-18.69459 -2.88464,-2.10279 -6.24676,-4.19287 -10.27874,-6.01804 -1.77112,-1.21971 -5.91991,-2.46339 -12.65519,-2.96249 -3.92795,0.13913 -6.59388,0.55004 -7.94366,1.05921 -1.19175,0.32374 -2.28324,0.6657 -3.2734,1.01666 z"
       inkscape:connector-curvature="0"
       inkscape:path-effect="#path-effect4401"
       inkscape:original-d="m 320.0625,545.375 c -24.46913,3.11056 -47.11495,16.6596 -72.30814,15.19456 -45.45239,2.92435 -91.31866,-1.19471 -136.56686,3.86794 -9.28331,3.4938 -7.911,19.93923 2.4375,20.71875 14.68583,2.5853 29.70777,0.34437 44.53125,1.1875 40.16719,-0.27443 80.58306,1.03064 120.51898,-3.69806 19.46695,-6.13565 40.02883,-17.74575 60.73102,-10.30194 21.46475,5.91796 43.1011,14.5011 65.84321,12.45257 44.14173,0.76789 88.60399,3.91266 132.56304,-0.79632 9.89153,-4.20828 5.56117,-21.90908 -5.3125,-20.5 -55.21103,-4.1111 -111.35992,2.60354 -165.90406,-8.47518 -15.27157,-4.00784 -30.39085,-10.33631 -46.53344,-9.64982 z" />
  </g>
</svg>
